<?xml version="1.0" standalone="no"?>
<!DOCTYPE svg PUBLIC "-//W3C//DTD SVG 20010904//EN"
 "http://www.w3.org/TR/2001/REC-SVG-20010904/DTD/svg10.dtd">
<svg version="1.0" xmlns="http://www.w3.org/2000/svg"
 width="500.000000pt" height="500.000000pt" viewBox="0 0 500.000000 500.000000"
 preserveAspectRatio="xMidYMid meet">

<g transform="translate(0.000000,500.000000) scale(0.100000,-0.100000)"
fill="#000000" stroke="none">
<path d="M2235 3864 c-389 -55 -651 -180 -900 -429 -271 -269 -416 -605 -432
-995 -18 -456 176 -811 567 -1035 8 -5 -22 30 -67 78 -422 448 -485 1128 -150
1639 209 321 531 532 906 594 123 20 374 15 486 -10 250 -56 469 -172 648
-345 208 -200 337 -439 393 -727 26 -131 23 -358 -5 -491 -77 -367 -282 -669
-586 -866 -97 -62 -158 -81 -245 -75 -127 9 -222 77 -279 197 -21 46 -26 70
-26 136 1 98 23 152 90 224 133 142 348 142 481 -1 45 -48 84 -122 84 -159 0
-11 5 -17 10 -14 6 3 10 28 10 54 0 263 -181 466 -484 541 -77 19 -109 22
-225 18 -120 -4 -147 -8 -230 -36 -123 -43 -217 -99 -309 -186 -163 -154 -287
-364 -351 -593 l-20 -73 46 -31 c45 -31 210 -119 224 -119 4 0 10 39 14 87 24
295 171 530 421 677 162 94 395 132 540 87 72 -22 126 -49 69 -34 -16 4 -64 8
-105 8 -65 0 -85 -5 -142 -33 -90 -44 -167 -122 -214 -216 -33 -67 -37 -86
-42 -171 -6 -118 14 -200 67 -283 130 -200 387 -274 597 -172 156 76 373 266
487 427 118 166 210 378 254 583 28 134 26 440 -5 579 -133 592 -581 1030
-1172 1146 -81 16 -342 28 -405 19z"/>
<path d="M1240 3083 c1 -5 16 -33 34 -63 l32 -55 249 -3 248 -2 -7 -62 c-3
-33 -6 -78 -6 -99 l0 -39 -180 0 c-99 0 -180 -3 -180 -6 0 -3 17 -34 38 -69
l37 -65 138 0 138 0 -6 -47 c-9 -84 -46 -634 -43 -644 2 -5 35 28 74 74 l71
82 16 255 c10 140 17 261 17 268 0 9 98 12 459 12 l459 0 6 -127 c12 -221 8
-210 84 -244 36 -16 66 -28 68 -26 2 2 -3 91 -11 198 -8 107 -15 195 -15 197
0 1 62 2 139 2 l139 0 36 61 c20 33 36 65 36 70 0 5 -75 9 -179 9 l-178 0 -7
61 c-3 34 -6 79 -6 100 l0 39 248 0 248 0 18 33 c10 17 28 47 38 65 l20 32
-1136 0 c-625 0 -1136 -3 -1136 -7z m1060 -223 l0 -100 -189 0 -189 0 5 68 c2
37 6 82 9 100 l5 32 179 0 180 0 0 -100z m501 88 c0 -7 4 -52 7 -100 l7 -88
-187 0 -188 0 0 100 0 100 180 0 c137 0 180 -3 181 -12z"/>
</g>
</svg>
